# Blender 3.6.5
# www.blender.org
mtllib ruingate.mtl
o Cube
v -0.622585 -0.374803 0.622585
v -0.580346 0.374803 0.580346
v -0.622585 -0.374803 -0.622585
v -0.580346 0.374803 -0.580346
v 0.622585 -0.374803 0.622585
v 0.580346 0.374803 0.580346
v 0.622585 -0.374803 -0.622585
v 0.580346 0.374803 -0.580346
v -0.597610 0.783634 0.597610
v -0.597610 0.783634 -0.597610
v 0.597610 0.783634 -0.597610
v 0.597610 0.783634 0.597610
v 0.622585 0.425397 -0.622585
v 0.622585 0.425397 0.622585
v -0.622585 0.425397 0.622585
v -0.622585 0.425397 -0.622585
v -0.622585 0.319685 0.622585
v -0.622585 0.319685 -0.622585
v 0.622585 0.319685 -0.622585
v 0.622585 0.319685 0.622585
v 0.622585 0.727279 -0.622585
v -0.622585 0.727279 0.622585
v 0.622585 0.727279 0.622585
v -0.622585 0.727279 -0.622585
v 0.622585 0.837201 0.622585
v -0.622585 0.837201 0.622585
v -0.622585 0.837201 -0.622585
v 0.622585 0.837201 -0.622585
v -0.622585 1.521927 0.622585
v -0.622585 1.579193 0.622585
v -0.597610 1.550560 0.597610
v -0.622585 1.579193 -0.622585
v -0.622585 1.521927 -0.622585
v -0.597610 1.550560 -0.597610
v 0.622585 1.579193 -0.622585
v 0.622585 1.521927 -0.622585
v 0.597610 1.550560 -0.597610
v 0.622585 1.579193 0.622585
v 0.622585 1.521927 0.622585
v 0.597610 1.550560 0.597610
v -0.622585 2.057237 0.622585
v -0.622585 2.114502 0.622585
v -0.597610 2.085870 0.597610
v -0.622585 2.114502 -0.622585
v -0.622585 2.057237 -0.622585
v -0.597610 2.085870 -0.597610
v 0.622585 2.114502 -0.622585
v 0.622585 2.057237 -0.622585
v 0.597610 2.085870 -0.597610
v 0.622585 2.114502 0.622585
v 0.622585 2.057237 0.622585
v 0.597610 2.085870 0.597610
v -0.622585 2.297703 0.622585
v -0.622585 2.354968 0.622585
v -0.597610 2.326335 0.597610
v -0.622585 2.354968 -0.622585
v -0.622585 2.297703 -0.622585
v -0.597610 2.326335 -0.597610
v 0.622585 2.354968 -0.622585
v 0.622585 2.297703 -0.622585
v 0.597610 2.326335 -0.597610
v 0.622585 2.354968 0.622585
v 0.622585 2.297703 0.622585
v 0.597610 2.326335 0.597610
v -0.622585 2.487963 0.622585
v -0.622585 2.545228 0.622585
v -0.597610 2.516595 0.597610
v -0.622585 2.545228 -0.622585
v -0.622585 2.487963 -0.622585
v -0.597610 2.516595 -0.597610
v 0.622585 2.545228 -0.622585
v 0.622585 2.487963 -0.622585
v 0.597610 2.516595 -0.597610
v 0.622585 2.545228 0.622585
v 0.622585 2.487963 0.622585
v 0.597610 2.516595 0.597610
v -0.622585 2.755533 0.622585
v -0.622585 2.812799 0.622585
v -0.597610 2.784166 0.597610
v -0.622585 2.812799 -0.622585
v -0.622585 2.755533 -0.622585
v -0.597610 2.784166 -0.597610
v 0.622585 2.812799 -0.622585
v 0.622585 2.755533 -0.622585
v 0.597610 2.784166 -0.597610
v 0.622585 2.812799 0.622585
v 0.622585 2.755533 0.622585
v 0.597610 2.784166 0.597610
v -0.622585 3.328561 0.622585
v -0.622585 3.385826 0.622585
v -0.597610 3.357193 0.597610
v -0.622585 3.385826 -0.622585
v -0.622585 3.328561 -0.622585
v -0.597610 3.357193 -0.597610
v 0.622585 3.385826 -0.622585
v 0.622585 3.328561 -0.622585
v 0.597610 3.357193 -0.597610
v 0.622585 3.385826 0.622585
v 0.622585 3.328561 0.622585
v 0.597610 3.357193 0.597610
v -0.622585 3.602500 0.622585
v -0.622585 3.659765 0.622585
v -0.597610 3.631133 0.597610
v -0.622585 3.659765 -0.622585
v -0.622585 3.602500 -0.622585
v -0.597610 3.631133 -0.597610
v 0.622585 3.659765 -0.622585
v 0.622585 3.602500 -0.622585
v 0.597610 3.631133 -0.597610
v 0.622585 3.659765 0.622585
v 0.622585 3.602500 0.622585
v 0.597610 3.631133 0.597610
v -0.622585 4.022090 0.622585
v -0.622585 4.079301 0.618500
v -0.597610 4.050706 0.596414
v -0.622585 4.079301 -0.626711
v -0.622585 4.022090 -0.622585
v -0.597610 4.050706 -0.598819
v 0.622585 4.079301 -0.626711
v 0.622585 4.022090 -0.622585
v 0.597610 4.050706 -0.598819
v 0.622585 4.079301 0.618500
v 0.622585 4.022090 0.622585
v 0.597610 4.050706 0.596414
v -0.622585 4.604923 0.543365
v -0.622585 4.663026 0.530531
v -0.597610 4.627191 0.513879
v -0.622585 4.316644 -0.664691
v -0.622585 4.258341 -0.652556
v -0.597610 4.294564 -0.633888
v 0.622585 4.316644 -0.664691
v 0.622585 4.258341 -0.652556
v 0.597610 4.294564 -0.633888
v 0.622585 4.663026 0.530531
v 0.622585 4.604923 0.543365
v 0.597610 4.627191 0.513879
v -0.622585 5.057711 0.411721
v -0.622585 5.115201 0.389537
v -0.597610 5.076865 0.378634
v -0.622585 4.623613 -0.749608
v -0.622585 4.564062 -0.732285
v -0.597610 4.603724 -0.718031
v 0.622585 4.623613 -0.749608
v 0.622585 4.564062 -0.732285
v 0.597610 4.603724 -0.718031
v 0.622585 5.115201 0.389537
v 0.622585 5.057711 0.411721
v 0.597610 5.076865 0.378634
v -0.622585 5.419037 0.245208
v -0.622585 5.475440 0.210973
v -0.597610 5.433057 0.209144
v -0.622585 4.749946 -0.798705
v -0.622585 4.689685 -0.769998
v -0.597610 4.735152 -0.762193
v 0.622585 4.749946 -0.798705
v 0.622585 4.689685 -0.769998
v 0.597610 4.735152 -0.762193
v 0.622585 5.475440 0.210973
v 0.622585 5.419037 0.245208
v 0.597610 5.433057 0.209144
v -0.622585 5.786389 -0.021712
v -0.622585 5.838840 -0.069941
v -0.597610 5.795652 -0.062089
v -0.622585 4.956810 -0.940340
v -0.622585 4.898773 -0.897781
v -0.597610 4.945760 -0.900861
v 0.622585 4.956810 -0.940340
v 0.622585 4.898773 -0.897781
v 0.597610 4.945760 -0.900861
v 0.622585 5.838840 -0.069941
v 0.622585 5.786389 -0.021712
v 0.597610 5.795652 -0.062089
v -0.622585 6.266442 -0.547917
v -0.622585 6.307899 -0.615278
v -0.597610 6.266412 -0.589959
v -0.622585 5.187860 -1.144852
v -0.622585 5.134780 -1.083307
v -0.597610 5.185805 -1.101015
v 0.622585 5.187860 -1.144852
v 0.622585 5.134780 -1.083307
v 0.597610 5.185805 -1.101015
v 0.622585 6.307899 -0.615278
v 0.622585 6.266442 -0.547917
v 0.597610 6.266412 -0.589959
v -0.622585 6.601243 -1.320752
v -0.622096 6.622120 -1.408047
v -0.597473 6.589333 -1.364932
v -0.622828 5.380937 -1.506319
v -0.622585 5.352979 -1.419774
v -0.597679 5.395906 -1.459477
v 0.622145 5.380001 -1.506520
v 0.622585 5.352979 -1.419774
v 0.597487 5.395643 -1.459533
v 0.622769 6.621272 -1.408236
v 0.622585 6.601243 -1.320752
v 0.597662 6.589093 -1.364985
v -0.619654 6.642985 -1.643385
v -0.621764 6.649777 -1.737925
v -0.595226 6.621751 -1.693368
v -0.626728 5.406485 -1.806121
v -0.623885 5.399590 -1.711592
v -0.599784 5.428304 -1.758831
v 0.616564 5.405271 -1.874491
v 0.619605 5.399315 -1.779773
v 0.593688 5.427403 -1.824405
v 0.621527 6.648563 -1.806296
v 0.623944 6.642622 -1.711581
v 0.598278 6.620825 -1.758946
v -0.640525 6.668583 -2.079425
v -0.645057 6.673420 -2.173984
v -0.617969 6.646053 -2.129444
v -0.651980 5.433848 -2.241716
v -0.645489 5.425291 -2.147620
v -0.623418 5.453756 -2.194794
v 0.591242 5.430052 -2.310652
v 0.597802 5.424078 -2.215991
v 0.569979 5.451865 -2.260581
v 0.598219 6.670901 -2.242596
v 0.602766 6.667370 -2.147795
v 0.575310 6.644596 -2.195161
v -0.658186 6.688577 -2.495031
v -0.662703 6.685403 -2.589081
v -0.635459 6.663496 -2.540621
v -0.667666 5.448488 -2.446025
v -0.661143 5.447866 -2.351871
v -0.639660 5.475132 -2.403274
v 0.575625 5.435729 -2.513205
v 0.582215 5.437727 -2.418539
v 0.553776 5.463621 -2.467615
v 0.580589 6.672644 -2.656261
v 0.585123 6.677122 -2.561918
v 0.557963 6.651615 -2.605024
v -0.636782 6.639829 -2.982233
v -0.681676 6.645740 -2.932688
v -0.669601 6.641762 -2.966658
v -0.686640 5.408824 -2.789632
v -0.641746 5.402914 -2.839176
v -0.674565 5.404847 -2.823602
v 0.506570 5.391129 -2.901225
v 0.556652 5.396065 -2.856812
v 0.540909 5.392373 -2.889280
v 0.561616 6.632980 -2.999868
v 0.511533 6.628045 -3.044281
v 0.545872 6.629289 -3.032336
vn -0.9552 0.2960 -0.0000
vn -0.7937 0.6083 -0.0000
vn -0.0000 0.2960 -0.9552
vn -0.0000 0.6083 -0.7937
vn 0.9552 0.2960 -0.0000
vn 0.7937 0.6083 -0.0000
vn -0.0000 0.2960 0.9552
vn -0.0000 0.6083 0.7937
vn -0.0000 -1.0000 -0.0000
vn 0.9809 0.1947 -0.0000
vn 0.9142 0.4052 -0.0000
vn -0.9792 -0.2030 -0.0000
vn -1.0000 -0.0000 -0.0000
vn -0.9809 0.1947 -0.0000
vn -0.9142 0.4052 -0.0000
vn -0.0000 0.1947 0.9809
vn -0.0000 0.4052 0.9142
vn -0.0000 0.1947 -0.9809
vn -0.0000 0.4052 -0.9142
vn 0.9792 -0.2030 -0.0000
vn 1.0000 -0.0000 -0.0000
vn -0.0000 -0.0000 1.0000
vn -0.0000 -0.2030 0.9792
vn -0.0000 -0.0000 -1.0000
vn -0.0000 -0.2030 -0.9792
vn -0.0000 -0.4223 -0.9065
vn -0.0000 0.1325 -0.9912
vn -0.0000 0.3095 -0.9509
vn -0.0000 0.1415 0.9899
vn -0.0000 -0.0245 0.9997
vn -0.0000 0.2882 0.9576
vn -0.0000 -0.2635 -0.9646
vn -0.0000 0.0013 -1.0000
vn -0.0000 -0.5542 -0.8324
vn -0.0000 -0.3613 -0.9325
vn -0.0000 0.1398 0.9902
vn -0.0000 0.4291 0.9033
vn -0.0000 -0.2949 -0.9555
vn -0.0000 -0.0937 -0.9956
vn -0.0000 0.3574 0.9339
vn -0.0000 0.5991 0.8007
vn -0.0000 -0.8573 -0.5149
vn -0.0000 -0.7918 -0.6108
vn -0.0000 -0.7919 -0.6107
vn -0.0000 0.7453 0.6667
vn -0.0000 -0.6263 -0.7796
vn -0.0000 -0.5069 -0.8620
vn 1.0000 -0.0018 -0.0025
vn -1.0000 0.0022 -0.0029
vn -0.9827 0.0127 -0.1849
vn -0.9876 0.0111 -0.1566
vn -0.0000 0.9234 0.3839
vn -0.9986 0.0056 0.0520
vn -0.9902 -0.0152 -0.1387
vn -0.9955 -0.0104 -0.0945
vn -0.9722 -0.0090 0.2338
vn -0.9764 -0.0080 0.2158
vn -0.9985 0.0010 0.0549
vn 0.0026 0.9969 0.0781
vn -0.0027 -0.9969 -0.0791
vn -0.0109 -0.9951 -0.0981
vn 0.0040 0.9985 0.0548
vn -0.0040 -0.9985 -0.0548
vn 0.9985 -0.0010 -0.0549
vn 0.1387 -0.1143 -0.9837
vn -0.2436 -0.1105 -0.9636
vn -0.2517 -0.1102 -0.9615
vn 0.1419 -0.1143 -0.9833
vn 0.9926 -0.0138 0.1209
vn 0.9910 -0.0144 0.1328
vn 0.9986 -0.0056 -0.0519
vn -0.9985 0.0102 0.0540
vn -0.9919 -0.0107 -0.1267
vn -0.9877 -0.0141 -0.1560
vn 0.0074 0.9994 0.0331
vn 0.0040 0.9934 -0.1149
vn -0.0040 -0.9934 0.1149
vn 0.9985 -0.0102 -0.0540
vn 0.9647 -0.0341 -0.2611
vn 0.9719 -0.0309 -0.2334
vn -0.0000 -0.6409 -0.7676
vn -0.0000 -0.3133 -0.9496
vn -0.0000 -0.6409 0.7676
vn -0.0000 -0.3133 0.9496
vn -0.7676 -0.6409 -0.0000
vn -0.9496 -0.3133 -0.0000
vn 0.7676 -0.6409 -0.0000
vn 0.9496 -0.3133 -0.0000
vn -0.9063 -0.4226 -0.0000
vn 0.9063 -0.4226 -0.0000
vn -0.0000 -0.4226 -0.9063
vn -0.0000 -0.4226 0.9063
vn -0.7536 -0.6573 -0.0000
vn -0.7536 0.6573 -0.0000
vn -0.0000 -0.6573 -0.7536
vn -0.0000 0.6573 -0.7536
vn 0.7536 -0.6573 -0.0000
vn 0.7536 0.6573 -0.0000
vn -0.0000 -0.6573 0.7536
vn -0.0000 0.6573 0.7536
vn -0.7532 -0.6578 -0.0000
vn -0.7534 0.6575 -0.0000
vn -0.0000 -0.6983 -0.7158
vn -0.0000 0.6389 -0.7693
vn 0.7532 -0.6578 -0.0000
vn 0.7534 0.6575 -0.0000
vn -0.0000 -0.6113 0.7914
vn -0.0000 0.6749 0.7379
vn -0.7662 -0.6172 0.1789
vn -0.7642 0.6194 -0.1795
vn -0.0000 -0.8128 -0.5826
vn -0.0000 0.4581 -0.8889
vn 0.7662 -0.6172 0.1789
vn 0.7642 0.6194 -0.1795
vn -0.0000 -0.4214 0.9069
vn -0.0000 0.7980 0.6027
vn -0.7770 -0.5780 0.2494
vn -0.7761 0.5791 -0.2498
vn -0.0000 -0.8462 -0.5329
vn -0.0000 0.3382 -0.9411
vn 0.7770 -0.5780 0.2494
vn 0.7761 0.5791 -0.2498
vn -0.0000 -0.2736 0.9619
vn -0.0000 0.8654 0.5010
vn -0.8003 -0.4869 0.3499
vn -0.7920 0.4958 -0.3562
vn -0.0000 -0.9268 -0.3755
vn -0.0000 0.1692 -0.9856
vn 0.8003 -0.4869 0.3499
vn 0.7920 0.4958 -0.3562
vn -0.0000 -0.0431 0.9991
vn -0.0000 0.9321 0.3623
vn -0.8208 -0.4012 0.4065
vn -0.8157 0.4063 -0.4117
vn -0.0000 -0.9630 -0.2695
vn -0.0000 -0.0654 -0.9979
vn 0.8208 -0.4012 0.4065
vn 0.8157 0.4063 -0.4117
vn -0.0000 0.1789 0.9839
vn -0.0000 0.9747 0.2236
vn -0.8516 -0.2241 0.4739
vn -0.8351 0.2352 -0.4973
vn -0.0000 -0.9989 -0.0468
vn -0.0000 -0.3279 -0.9447
vn 0.8516 -0.2241 0.4739
vn 0.8351 0.2352 -0.4973
vn -0.0000 0.5209 0.8536
vn -0.0000 1.0000 -0.0007
vn -0.8775 -0.0375 0.4781
vn -0.8646 0.0398 -0.5009
vn -0.0004 -0.9507 0.3102
vn -0.0001 -0.6804 -0.7329
vn 0.8780 -0.0381 0.4772
vn 0.8648 0.0396 -0.5006
vn 0.0004 0.7991 0.6011
vn 0.0001 0.9649 -0.2626
vn -0.8646 -0.0241 0.5018
vn -0.8952 0.0276 -0.4447
vn 0.0218 -0.9116 0.4105
vn -0.0292 -0.8504 -0.5252
vn 0.9041 -0.0269 0.4264
vn 0.8727 0.0236 -0.4877
vn 0.0292 0.8550 0.5177
vn -0.0217 0.9145 -0.4040
vn -0.8549 -0.0240 0.5182
vn -0.9091 0.0267 -0.4158
vn 0.0196 -0.9190 0.3938
vn -0.0298 -0.8530 -0.5210
vn 0.9110 -0.0272 0.4115
vn 0.8574 0.0246 -0.5141
vn 0.0291 0.8639 0.5028
vn -0.0222 0.9069 -0.4208
vn -0.8551 0.0627 0.5147
vn -0.9086 -0.0453 -0.4152
vn 0.0198 -0.8514 0.5242
vn -0.0329 -0.8844 -0.4656
vn 0.9090 0.0445 0.4144
vn 0.8545 -0.0621 -0.5157
vn 0.0306 0.9185 0.3942
vn -0.0183 0.8689 -0.4947
vn -0.4314 -0.1019 -0.8964
vn -0.9430 -0.0345 -0.3311
vn 0.3301 -0.1098 -0.9375
vn 0.9009 -0.0534 -0.4308
vt 0.606618 0.000000
vt 0.625000 0.000000
vt 0.625000 0.250000
vt 0.606618 0.250000
vt 0.625000 0.500000
vt 0.606618 0.500000
vt 0.625000 0.750000
vt 0.606618 0.750000
vt 0.625000 1.000000
vt 0.606618 1.000000
vt 0.125000 0.500000
vt 0.375000 0.500000
vt 0.375000 0.750000
vt 0.125000 0.750000
vt 0.625000 0.750000
vt 0.625000 0.750000
vt 0.625000 0.000000
vt 0.625000 0.000000
vt 0.625000 0.250000
vt 0.625000 0.750000
vt 0.625000 1.000000
vt 0.625000 0.250000
vt 0.634549 0.500000
vt 0.865451 0.500000
vt 0.865451 0.750000
vt 0.634549 0.750000
vt 0.625000 0.752797
vt 0.625000 0.759549
vt 0.625000 0.990451
vt 0.625000 0.997203
vt 0.625000 0.252797
vt 0.625000 0.259549
vt 0.625000 0.490451
vt 0.625000 0.497203
vt 0.625000 0.500000
vt 0.375000 1.000000
vt 0.375000 0.250000
vt 0.375000 0.000000
vt 0.625000 0.000240
vt 0.625000 0.749880
vt 0.625000 0.000252
vt 0.625000 0.749874
vt 0.625000 0.000260
vt 0.625000 0.749870
vt 0.625000 0.000309
vt 0.625000 0.749845
vt 0.625000 0.000368
vt 0.625000 0.749816
vt 0.625000 0.000645
vt 0.625000 0.749678
vt 0.625000 0.000748
vt 0.625000 0.499987
vt 0.625000 0.749601
vt 0.625000 0.999971
vt 0.625000 0.000093
vt 0.625000 0.499937
vt 0.625000 0.750060
vt 0.625000 0.249901
vt 0.625000 0.000038
vt 0.625000 0.499982
vt 0.625000 0.749950
vt 0.625000 0.999933
vt 0.625000 0.250048
vt 0.625000 0.000451
vt 0.625000 0.749827
vt 0.875000 0.500186
vt 0.875000 0.750000
vt 0.625000 0.249814
vt 0.625000 0.500222
s 1
f 17/1/1 2/2/2 4/3/2 18/4/1
f 18/4/3 4/3/4 8/5/4 19/6/3
f 19/6/5 8/5/6 6/7/6 20/8/5
f 20/8/7 6/7/8 2/9/8 17/10/7
f 3/11/9 7/12/9 5/13/9 1/14/9
f 23/7/10 21/5/10 11/5/11 12/7/11
f 27/3/12 26/2/12 29/2/13 33/3/13
f 24/3/14 22/2/14 9/2/15 10/3/15
f 22/9/16 23/7/16 12/7/17 9/9/17
f 21/5/18 24/3/18 10/3/19 11/5/19
f 44/3/13 42/2/13 53/2/13 57/3/13
f 25/7/20 28/5/20 36/5/21 39/7/21
f 38/7/21 35/5/21 48/5/21 51/15/21
f 30/9/22 38/15/22 51/7/22 41/9/22
f 56/3/13 54/2/13 65/2/13 69/3/13
f 26/9/23 25/7/23 39/7/22 29/9/22
f 35/5/24 32/3/24 45/3/24 48/5/24
f 28/5/25 27/3/25 33/3/24 36/5/24
f 59/5/24 56/3/24 69/3/24 72/5/24
f 42/9/22 50/16/22 63/7/22 53/9/22
f 47/5/24 44/3/24 57/3/24 60/5/24
f 50/7/21 47/5/21 60/5/21 63/16/21
f 80/3/13 78/2/13 89/2/13 93/3/13
f 62/7/21 59/5/21 72/5/21 75/7/21
f 68/3/13 66/2/13 77/2/13 81/3/13
f 54/9/22 62/7/22 75/7/22 65/9/22
f 78/9/22 86/7/22 99/7/22 89/9/22
f 66/9/22 74/7/22 87/7/22 77/9/22
f 71/5/24 68/3/24 81/3/24 84/5/24
f 74/7/21 71/5/21 84/5/21 87/7/21
f 95/5/24 92/3/24 105/3/24 108/5/24
f 83/5/24 80/3/24 93/3/24 96/5/24
f 86/7/21 83/5/21 96/5/21 99/15/21
f 92/3/13 90/2/13 101/2/13 105/3/13
f 116/3/13 114/17/13 125/2/13 129/3/13
f 98/7/21 95/5/21 108/5/21 111/7/21
f 104/3/13 102/2/13 113/2/13 117/3/13
f 90/9/22 98/7/22 111/7/22 101/9/22
f 119/5/26 116/3/26 129/3/27 132/5/27
f 102/9/22 110/16/22 123/7/22 113/9/22
f 107/5/24 104/3/24 117/3/28 120/5/28
f 110/7/21 107/5/21 120/5/21 123/16/21
f 134/7/21 131/5/21 144/5/21 147/7/21
f 122/7/21 119/5/21 132/5/21 135/7/21
f 128/3/13 126/18/13 137/2/13 141/3/13
f 114/9/29 122/15/29 135/7/29 125/9/29
f 152/3/13 150/2/13 161/2/13 165/3/13
f 140/3/13 138/2/13 149/2/13 153/3/13
f 126/9/30 134/7/30 147/7/31 137/9/31
f 131/5/32 128/3/32 141/3/33 144/5/33
f 155/5/34 152/3/34 165/3/35 168/5/35
f 138/9/36 146/7/36 159/7/37 149/9/37
f 143/5/38 140/3/38 153/3/39 156/5/39
f 146/7/21 143/5/21 156/5/21 159/16/21
f 170/7/21 167/5/21 180/5/21 183/7/21
f 158/7/21 155/5/21 168/5/21 171/7/21
f 164/3/13 162/2/13 173/2/13 177/3/13
f 150/9/40 158/7/40 171/7/41 161/9/41
f 179/5/42 176/19/42 189/3/43 192/5/44
f 176/3/13 174/17/13 185/2/13 189/3/13
f 162/9/45 170/20/45 183/7/45 173/21/45
f 167/5/46 164/22/46 177/3/47 180/5/47
f 194/7/48 191/5/48 204/5/48 207/7/48
f 182/7/21 179/5/21 192/5/21 195/15/21
f 188/3/49 186/2/49 197/2/50 201/19/51
f 174/9/52 182/7/52 195/7/52 185/9/52
f 212/3/53 210/2/53 221/2/54 225/3/55
f 200/3/56 198/2/57 209/2/58 213/3/58
f 186/9/59 194/7/59 207/7/59 197/9/59
f 191/5/60 188/3/60 201/3/60 204/5/60
f 215/5/61 212/3/61 225/3/61 228/5/61
f 198/9/62 206/7/62 219/7/62 209/9/62
f 203/5/63 200/3/63 213/3/63 216/5/63
f 206/7/64 203/5/64 216/5/64 219/7/64
f 239/23/65 237/24/66 233/25/67 243/26/68
f 218/7/69 215/5/70 228/5/71 231/15/71
f 224/3/72 222/2/72 234/2/73 236/3/74
f 210/9/75 218/7/75 231/7/75 221/9/75
f 222/9/76 230/7/76 242/7/76 244/27/76 243/28/76 233/29/76 235/30/76 234/9/76
f 227/5/77 224/3/77 236/3/77 238/31/77 237/32/77 239/33/77 241/34/77 240/35/77
f 230/7/78 227/5/78 240/5/79 242/7/80
f 8/5/81 4/3/81 16/3/82 13/5/82
f 2/9/83 6/7/83 14/7/84 15/9/84
f 4/3/85 2/2/85 15/2/86 16/3/86
f 6/7/87 8/5/87 13/5/88 14/7/88
f 5/13/22 20/8/7 17/10/7 1/36/22
f 7/12/21 19/6/5 20/8/5 5/13/21
f 3/37/24 18/4/3 19/6/3 7/12/24
f 1/38/13 17/1/1 18/4/1 3/37/13
f 13/5/82 16/3/82 24/3/18 21/5/18
f 15/9/84 14/7/84 23/7/16 22/9/16
f 16/3/86 15/2/86 22/2/14 24/3/14
f 14/7/88 13/5/88 21/5/10 23/7/10
f 10/3/89 9/2/89 26/2/12 27/3/12
f 12/7/90 11/5/90 28/5/20 25/7/20
f 11/5/91 10/3/91 27/3/25 28/5/25
f 9/9/92 12/7/92 25/7/23 26/9/23
f 30/2/93 32/3/93 34/3/93 31/2/93
f 31/2/94 34/3/94 33/3/94 29/2/94
f 32/3/95 35/5/95 37/5/95 34/3/95
f 34/3/96 37/5/96 36/5/96 33/3/96
f 35/5/97 38/7/97 40/7/97 37/5/97
f 37/5/98 40/7/98 39/7/98 36/5/98
f 38/15/99 30/9/99 31/9/99 40/7/99
f 40/7/100 31/9/100 29/9/100 39/7/100
f 42/2/93 44/3/93 46/3/93 43/2/93
f 43/2/94 46/3/94 45/3/94 41/2/94
f 44/3/95 47/5/95 49/5/95 46/3/95
f 46/3/96 49/5/96 48/5/96 45/3/96
f 47/5/97 50/7/97 52/7/97 49/5/97
f 49/5/98 52/7/98 51/15/98 48/5/98
f 50/16/99 42/9/99 43/9/99 52/7/99
f 52/7/100 43/9/100 41/9/100 51/7/100
f 54/2/93 56/3/93 58/3/93 55/2/93
f 55/2/94 58/3/94 57/3/94 53/2/94
f 56/3/95 59/5/95 61/5/95 58/3/95
f 58/3/96 61/5/96 60/5/96 57/3/96
f 59/5/97 62/7/97 64/7/97 61/5/97
f 61/5/98 64/7/98 63/16/98 60/5/98
f 62/7/99 54/9/99 55/9/99 64/7/99
f 64/7/100 55/9/100 53/9/100 63/7/100
f 66/2/93 68/3/93 70/3/93 67/2/93
f 67/2/94 70/3/94 69/3/94 65/2/94
f 68/3/95 71/5/95 73/5/95 70/3/95
f 70/3/96 73/5/96 72/5/96 69/3/96
f 71/5/97 74/7/97 76/7/97 73/5/97
f 73/5/98 76/7/98 75/7/98 72/5/98
f 74/7/99 66/9/99 67/9/99 76/7/99
f 76/7/100 67/9/100 65/9/100 75/7/100
f 78/2/93 80/3/93 82/3/93 79/2/93
f 79/2/94 82/3/94 81/3/94 77/2/94
f 80/3/95 83/5/95 85/5/95 82/3/95
f 82/3/96 85/5/96 84/5/96 81/3/96
f 83/5/97 86/7/97 88/7/97 85/5/97
f 85/5/98 88/7/98 87/7/98 84/5/98
f 86/7/99 78/9/99 79/9/99 88/7/99
f 88/7/100 79/9/100 77/9/100 87/7/100
f 90/2/93 92/3/93 94/3/93 91/2/93
f 91/2/94 94/3/94 93/3/94 89/2/94
f 92/3/95 95/5/95 97/5/95 94/3/95
f 94/3/96 97/5/96 96/5/96 93/3/96
f 95/5/97 98/7/97 100/7/97 97/5/97
f 97/5/98 100/7/98 99/15/98 96/5/98
f 98/7/99 90/9/99 91/9/99 100/7/99
f 100/7/100 91/9/100 89/9/100 99/7/100
f 102/2/93 104/3/93 106/3/93 103/2/93
f 103/2/94 106/3/94 105/3/94 101/2/94
f 104/3/95 107/5/95 109/5/95 106/3/95
f 106/3/96 109/5/96 108/5/96 105/3/96
f 107/5/97 110/7/97 112/7/97 109/5/97
f 109/5/98 112/7/98 111/7/98 108/5/98
f 110/16/99 102/9/99 103/9/99 112/7/99
f 112/7/100 103/9/100 101/9/100 111/7/100
f 114/17/101 116/3/101 118/3/101 115/39/101
f 115/39/102 118/3/102 117/3/102 113/2/102
f 116/3/26 119/5/26 121/5/103 118/3/103
f 118/3/104 121/5/104 120/5/28 117/3/28
f 119/5/105 122/7/105 124/40/105 121/5/105
f 121/5/106 124/40/106 123/16/106 120/5/106
f 122/15/107 114/9/107 115/9/107 124/40/107
f 124/40/108 115/9/108 113/9/108 123/7/108
f 126/18/109 128/3/109 130/3/109 127/41/109
f 127/41/110 130/3/110 129/3/110 125/2/110
f 128/3/111 131/5/111 133/5/111 130/3/111
f 130/3/112 133/5/112 132/5/27 129/3/27
f 131/5/113 134/7/113 136/42/113 133/5/113
f 133/5/114 136/42/114 135/7/114 132/5/114
f 134/7/30 126/9/30 127/9/115 136/42/115
f 136/42/116 127/9/116 125/9/116 135/7/116
f 138/2/117 140/3/117 142/3/117 139/43/117
f 139/43/118 142/3/118 141/3/118 137/2/118
f 140/3/119 143/5/119 145/5/119 142/3/119
f 142/3/120 145/5/120 144/5/33 141/3/33
f 143/5/121 146/7/121 148/44/121 145/5/121
f 145/5/122 148/44/122 147/7/122 144/5/122
f 146/7/36 138/9/36 139/9/123 148/44/123
f 148/44/124 139/9/124 137/9/124 147/7/124
f 150/2/125 152/3/125 154/3/125 151/45/125
f 151/45/126 154/3/126 153/3/126 149/2/126
f 152/3/127 155/5/127 157/5/127 154/3/127
f 154/3/128 157/5/128 156/5/39 153/3/39
f 155/5/129 158/7/129 160/46/129 157/5/129
f 157/5/130 160/46/130 159/16/130 156/5/130
f 158/7/40 150/9/40 151/9/131 160/46/131
f 160/46/132 151/9/132 149/9/132 159/7/132
f 162/2/133 164/3/133 166/3/133 163/47/133
f 163/47/134 166/3/134 165/3/134 161/2/134
f 164/22/135 167/5/135 169/5/135 166/3/135
f 166/3/136 169/5/136 168/5/35 165/3/35
f 167/5/137 170/7/137 172/48/137 169/5/137
f 169/5/138 172/48/138 171/7/138 168/5/138
f 170/20/139 162/9/139 163/9/139 172/48/139
f 172/48/140 163/9/140 161/9/140 171/7/140
f 174/17/141 176/3/141 178/3/141 175/49/141
f 175/49/142 178/3/142 177/3/142 173/2/142
f 176/19/143 179/5/143 181/5/143 178/3/143
f 178/3/144 181/5/144 180/5/47 177/3/47
f 179/5/145 182/7/145 184/50/145 181/5/145
f 181/5/146 184/50/146 183/7/146 180/5/146
f 182/7/147 174/9/147 175/9/147 184/50/147
f 184/50/148 175/9/148 173/21/148 183/7/148
f 186/2/149 188/3/149 190/3/149 187/51/149
f 187/51/150 190/3/150 189/3/150 185/2/150
f 188/3/151 191/5/151 193/52/151 190/3/151
f 190/3/152 193/52/152 192/5/44 189/3/43
f 191/5/153 194/7/153 196/53/153 193/52/153
f 193/52/154 196/53/154 195/15/154 192/5/154
f 194/7/155 186/9/155 187/54/155 196/53/155
f 196/53/156 187/54/156 185/9/156 195/7/156
f 198/2/57 200/3/56 202/3/157 199/55/157
f 199/55/158 202/3/158 201/19/51 197/2/50
f 200/3/159 203/5/159 205/56/159 202/3/159
f 202/3/160 205/56/160 204/5/160 201/3/160
f 203/5/161 206/7/161 208/57/161 205/56/161
f 205/56/162 208/57/162 207/7/162 204/5/162
f 206/7/163 198/9/163 199/9/163 208/57/163
f 208/57/164 199/9/164 197/9/164 207/7/164
f 210/2/165 212/3/165 214/58/165 211/59/165
f 211/59/166 214/58/166 213/3/166 209/2/166
f 212/3/167 215/5/167 217/60/167 214/58/167
f 214/58/168 217/60/168 216/5/168 213/3/168
f 215/5/70 218/7/69 220/61/169 217/60/169
f 217/60/170 220/61/170 219/7/170 216/5/170
f 218/7/171 210/9/171 211/62/171 220/61/171
f 220/61/172 211/62/172 209/9/172 219/7/172
f 222/2/173 224/3/173 226/63/173 223/64/173
f 223/64/174 226/63/174 225/3/55 221/2/54
f 224/3/175 227/5/175 229/5/175 226/63/175
f 226/63/176 229/5/176 228/5/176 225/3/176
f 227/5/177 230/7/177 232/65/177 229/5/177
f 229/5/178 232/65/178 231/15/178 228/5/178
f 230/7/179 222/9/179 223/9/179 232/65/179
f 232/65/180 223/9/180 221/9/180 231/7/180
f 233/25/67 237/24/66 238/66/181 235/67/181
f 235/2/182 238/68/182 236/3/74 234/2/73
f 239/23/65 243/26/68 244/7/183 241/69/183
f 241/69/184 244/7/184 242/7/80 240/5/79
f 32/3/13 30/2/13 41/2/13 45/3/13
